<svg width="365" height="380" viewBox="0 0 365 380" fill="none" xmlns="http://www.w3.org/2000/svg">
<path d="M74.1873 40.2C73.1073 40.2 72.1139 40.02 71.2073 39.66C70.3139 39.2867 69.5406 38.7733 68.8873 38.12C68.2339 37.4667 67.7273 36.7 67.3673 35.82C67.0206 34.94 66.8473 33.9867 66.8473 32.96C66.8473 31.9333 67.0273 30.9867 67.3873 30.12C67.7606 29.24 68.2806 28.48 68.9473 27.84C69.6273 27.1867 70.4206 26.68 71.3273 26.32C72.2339 25.96 73.2273 25.78 74.3073 25.78C75.0539 25.78 75.7673 25.88 76.4473 26.08C77.1273 26.28 77.7473 26.5533 78.3073 26.9C78.8673 27.2467 79.3339 27.6467 79.7073 28.1L77.8473 30.06C77.5006 29.7267 77.1339 29.4467 76.7473 29.22C76.3739 28.98 75.9806 28.8 75.5673 28.68C75.1539 28.5467 74.7273 28.48 74.2873 28.48C73.6606 28.48 73.0806 28.5933 72.5473 28.82C72.0273 29.0467 71.5673 29.36 71.1673 29.76C70.7673 30.16 70.4539 30.6333 70.2273 31.18C70.0139 31.7267 69.9073 32.32 69.9073 32.96C69.9073 33.5867 70.0206 34.18 70.2473 34.74C70.4873 35.2867 70.8073 35.7667 71.2073 36.18C71.6206 36.58 72.1006 36.9 72.6473 37.14C73.1939 37.3667 73.7806 37.48 74.4073 37.48C74.8473 37.48 75.2673 37.4133 75.6673 37.28C76.0673 37.1467 76.4139 36.96 76.7073 36.72C77.0139 36.4667 77.2473 36.1733 77.4073 35.84C77.5806 35.5067 77.6673 35.1533 77.6673 34.78V34.3L78.0673 34.86H74.0673V32.36H80.5473C80.5606 32.5067 80.5739 32.6867 80.5873 32.9C80.6139 33.1133 80.6273 33.3267 80.6273 33.54C80.6406 33.74 80.6473 33.9 80.6473 34.02C80.6473 34.9267 80.4806 35.76 80.1473 36.52C79.8273 37.28 79.3739 37.9333 78.7873 38.48C78.2139 39.0267 77.5339 39.4533 76.7473 39.76C75.9606 40.0533 75.1073 40.2 74.1873 40.2ZM82.8946 40V29.42H85.6346L85.7346 32.82L85.2546 32.12C85.4146 31.5733 85.6746 31.08 86.0346 30.64C86.3946 30.1867 86.8146 29.8333 87.2946 29.58C87.7879 29.3267 88.3013 29.2 88.8346 29.2C89.0613 29.2 89.2813 29.22 89.4946 29.26C89.7079 29.3 89.8879 29.3467 90.0346 29.4L89.2746 32.52C89.1146 32.44 88.9213 32.3733 88.6946 32.32C88.4679 32.2533 88.2346 32.22 87.9946 32.22C87.6746 32.22 87.3746 32.28 87.0946 32.4C86.8279 32.5067 86.5946 32.6667 86.3946 32.88C86.1946 33.08 86.0346 33.32 85.9146 33.6C85.8079 33.88 85.7546 34.1867 85.7546 34.52V40H82.8946ZM96.1349 40.2C95.0549 40.2 94.0883 39.9667 93.2349 39.5C92.3949 39.02 91.7283 38.3667 91.2349 37.54C90.7549 36.7133 90.5149 35.7667 90.5149 34.7C90.5149 33.6333 90.7549 32.6933 91.2349 31.88C91.7283 31.0533 92.3949 30.4 93.2349 29.92C94.0883 29.44 95.0549 29.2 96.1349 29.2C97.2016 29.2 98.1549 29.44 98.9949 29.92C99.8483 30.4 100.515 31.0533 100.995 31.88C101.475 32.6933 101.715 33.6333 101.715 34.7C101.715 35.7667 101.475 36.7133 100.995 37.54C100.515 38.3667 99.8483 39.02 98.9949 39.5C98.1549 39.9667 97.2016 40.2 96.1349 40.2ZM96.1349 37.72C96.6549 37.72 97.1216 37.5933 97.5349 37.34C97.9483 37.0733 98.2683 36.7133 98.4949 36.26C98.7349 35.7933 98.8549 35.2733 98.8549 34.7C98.8549 34.1133 98.7349 33.5933 98.4949 33.14C98.2683 32.6733 97.9483 32.3133 97.5349 32.06C97.1216 31.7933 96.6549 31.66 96.1349 31.66C95.6016 31.66 95.1283 31.7933 94.7149 32.06C94.3016 32.3267 93.9749 32.6867 93.7349 33.14C93.4949 33.5933 93.3816 34.1133 93.3949 34.7C93.3816 35.2733 93.4949 35.7933 93.7349 36.26C93.9749 36.7133 94.3016 37.0733 94.7149 37.34C95.1283 37.5933 95.6016 37.72 96.1349 37.72ZM107.492 40.2C106.718 40.2 106.052 40.0333 105.492 39.7C104.945 39.3533 104.518 38.8667 104.212 38.24C103.918 37.6 103.772 36.8333 103.772 35.94V29.42H106.612V35.48C106.612 35.96 106.692 36.38 106.852 36.74C107.012 37.0867 107.238 37.3533 107.532 37.54C107.825 37.7267 108.185 37.82 108.612 37.82C108.918 37.82 109.205 37.7733 109.472 37.68C109.738 37.5733 109.965 37.4267 110.152 37.24C110.338 37.0533 110.485 36.8333 110.592 36.58C110.698 36.3267 110.752 36.0533 110.752 35.76V29.42H113.592V40H110.892L110.792 37.82L111.312 37.58C111.152 38.0733 110.885 38.52 110.512 38.92C110.138 39.32 109.692 39.6333 109.172 39.86C108.652 40.0867 108.092 40.2 107.492 40.2ZM116.449 44.4V29.42H119.189L119.269 31.8L118.749 31.62C118.843 31.1933 119.069 30.8 119.429 30.44C119.803 30.08 120.263 29.7867 120.809 29.56C121.356 29.3333 121.929 29.22 122.529 29.22C123.449 29.22 124.263 29.46 124.969 29.94C125.689 30.4067 126.256 31.0533 126.669 31.88C127.096 32.6933 127.309 33.6333 127.309 34.7C127.309 35.7533 127.103 36.6933 126.689 37.52C126.276 38.3467 125.709 39 124.989 39.48C124.269 39.9467 123.449 40.18 122.529 40.18C121.916 40.18 121.329 40.0667 120.769 39.84C120.223 39.6 119.756 39.2867 119.369 38.9C118.983 38.5133 118.743 38.1 118.649 37.66L119.309 37.38V44.4H116.449ZM121.889 37.74C122.409 37.74 122.869 37.6133 123.269 37.36C123.669 37.1067 123.983 36.7533 124.209 36.3C124.436 35.8333 124.549 35.3 124.549 34.7C124.549 34.1 124.436 33.5733 124.209 33.12C123.983 32.6667 123.669 32.3133 123.269 32.06C122.883 31.8067 122.423 31.68 121.889 31.68C121.356 31.68 120.889 31.8067 120.489 32.06C120.089 32.3 119.776 32.6533 119.549 33.12C119.323 33.5733 119.209 34.1 119.209 34.7C119.209 35.3 119.323 35.8333 119.549 36.3C119.776 36.7533 120.089 37.1067 120.489 37.36C120.889 37.6133 121.356 37.74 121.889 37.74ZM135.99 40V26H142.07C143.003 26 143.79 26.14 144.43 26.42C145.083 26.6867 145.577 27.08 145.91 27.6C146.243 28.12 146.41 28.74 146.41 29.46C146.41 30.26 146.21 30.9267 145.81 31.46C145.41 31.9933 144.837 32.36 144.09 32.56L144.07 32.16C144.683 32.3067 145.223 32.5467 145.69 32.88C146.157 33.2133 146.517 33.6267 146.77 34.12C147.023 34.6133 147.15 35.1733 147.15 35.8C147.15 36.4933 147.037 37.1067 146.81 37.64C146.583 38.16 146.25 38.5933 145.81 38.94C145.37 39.2867 144.85 39.5533 144.25 39.74C143.663 39.9133 143.003 40 142.27 40H135.99ZM138.87 37.4H142.15C142.577 37.4 142.937 37.34 143.23 37.22C143.537 37.0867 143.77 36.8867 143.93 36.62C144.09 36.3533 144.17 36.04 144.17 35.68C144.17 35.3333 144.083 35.04 143.91 34.8C143.737 34.56 143.49 34.38 143.17 34.26C142.863 34.1267 142.49 34.06 142.05 34.06H138.87V37.4ZM138.87 31.68H141.71C142.07 31.68 142.383 31.6133 142.65 31.48C142.917 31.3467 143.117 31.1667 143.25 30.94C143.397 30.7133 143.47 30.4467 143.47 30.14C143.47 29.6467 143.31 29.2667 142.99 29C142.67 28.7333 142.19 28.6 141.55 28.6H138.87V31.68ZM154.377 40.2C153.297 40.2 152.33 39.9667 151.477 39.5C150.637 39.02 149.97 38.3667 149.477 37.54C148.997 36.7133 148.757 35.7667 148.757 34.7C148.757 33.6333 148.997 32.6933 149.477 31.88C149.97 31.0533 150.637 30.4 151.477 29.92C152.33 29.44 153.297 29.2 154.377 29.2C155.444 29.2 156.397 29.44 157.237 29.92C158.09 30.4 158.757 31.0533 159.237 31.88C159.717 32.6933 159.957 33.6333 159.957 34.7C159.957 35.7667 159.717 36.7133 159.237 37.54C158.757 38.3667 158.09 39.02 157.237 39.5C156.397 39.9667 155.444 40.2 154.377 40.2ZM154.377 37.72C154.897 37.72 155.364 37.5933 155.777 37.34C156.19 37.0733 156.51 36.7133 156.737 36.26C156.977 35.7933 157.097 35.2733 157.097 34.7C157.097 34.1133 156.977 33.5933 156.737 33.14C156.51 32.6733 156.19 32.3133 155.777 32.06C155.364 31.7933 154.897 31.66 154.377 31.66C153.844 31.66 153.37 31.7933 152.957 32.06C152.544 32.3267 152.217 32.6867 151.977 33.14C151.737 33.5933 151.624 34.1133 151.637 34.7C151.624 35.2733 151.737 35.7933 151.977 36.26C152.217 36.7133 152.544 37.0733 152.957 37.34C153.37 37.5933 153.844 37.72 154.377 37.72ZM167.014 40.2C165.934 40.2 164.967 39.9667 164.114 39.5C163.274 39.02 162.607 38.3667 162.114 37.54C161.634 36.7133 161.394 35.7667 161.394 34.7C161.394 33.6333 161.634 32.6933 162.114 31.88C162.607 31.0533 163.274 30.4 164.114 29.92C164.967 29.44 165.934 29.2 167.014 29.2C168.08 29.2 169.034 29.44 169.874 29.92C170.727 30.4 171.394 31.0533 171.874 31.88C172.354 32.6933 172.594 33.6333 172.594 34.7C172.594 35.7667 172.354 36.7133 171.874 37.54C171.394 38.3667 170.727 39.02 169.874 39.5C169.034 39.9667 168.08 40.2 167.014 40.2ZM167.014 37.72C167.534 37.72 168 37.5933 168.414 37.34C168.827 37.0733 169.147 36.7133 169.374 36.26C169.614 35.7933 169.734 35.2733 169.734 34.7C169.734 34.1133 169.614 33.5933 169.374 33.14C169.147 32.6733 168.827 32.3133 168.414 32.06C168 31.7933 167.534 31.66 167.014 31.66C166.48 31.66 166.007 31.7933 165.594 32.06C165.18 32.3267 164.854 32.6867 164.614 33.14C164.374 33.5933 164.26 34.1133 164.274 34.7C164.26 35.2733 164.374 35.7933 164.614 36.26C164.854 36.7133 165.18 37.0733 165.594 37.34C166.007 37.5933 166.48 37.72 167.014 37.72ZM177.431 36.82L176.591 34.48L181.591 29.42H185.331L177.431 36.82ZM174.731 40V25.2H177.571V40H174.731ZM181.891 40L178.091 35.22L180.091 33.62L185.311 40H181.891ZM187.119 40V29.42H189.959V40H187.119ZM188.519 27.24C187.972 27.24 187.546 27.1067 187.239 26.84C186.932 26.5733 186.779 26.1933 186.779 25.7C186.779 25.2467 186.932 24.88 187.239 24.6C187.559 24.3067 187.986 24.16 188.519 24.16C189.066 24.16 189.492 24.3 189.799 24.58C190.106 24.8467 190.259 25.22 190.259 25.7C190.259 26.1667 190.099 26.54 189.779 26.82C189.472 27.1 189.052 27.24 188.519 27.24ZM192.992 40V29.42H195.712L195.792 31.58L195.232 31.82C195.379 31.34 195.639 30.9067 196.012 30.52C196.399 30.12 196.859 29.8 197.392 29.56C197.926 29.32 198.486 29.2 199.072 29.2C199.872 29.2 200.539 29.36 201.072 29.68C201.619 30 202.026 30.4867 202.292 31.14C202.572 31.78 202.712 32.5733 202.712 33.52V40H199.872V33.74C199.872 33.26 199.806 32.86 199.672 32.54C199.539 32.22 199.332 31.9867 199.052 31.84C198.786 31.68 198.452 31.6133 198.052 31.64C197.732 31.64 197.432 31.6933 197.152 31.8C196.886 31.8933 196.652 32.0333 196.452 32.22C196.266 32.4067 196.112 32.62 195.992 32.86C195.886 33.1 195.832 33.36 195.832 33.64V40H194.432C194.126 40 193.852 40 193.612 40C193.372 40 193.166 40 192.992 40ZM210.254 44.6C209.414 44.6 208.587 44.4733 207.774 44.22C206.96 43.98 206.3 43.6667 205.794 43.28L206.794 41.24C207.06 41.4267 207.367 41.5933 207.714 41.74C208.06 41.8867 208.42 42 208.794 42.08C209.18 42.16 209.574 42.2 209.974 42.2C210.667 42.2 211.234 42.0933 211.674 41.88C212.127 41.6667 212.467 41.3467 212.694 40.92C212.92 40.5067 213.034 39.9733 213.034 39.32V37.48L213.514 37.58C213.434 38.02 213.214 38.4267 212.854 38.8C212.494 39.16 212.04 39.4533 211.494 39.68C210.947 39.8933 210.387 40 209.814 40C208.827 40 207.954 39.7733 207.194 39.32C206.434 38.8667 205.834 38.24 205.394 37.44C204.954 36.64 204.734 35.72 204.734 34.68C204.734 33.6133 204.947 32.6733 205.374 31.86C205.814 31.0333 206.407 30.3867 207.154 29.92C207.914 29.44 208.774 29.2 209.734 29.2C210.134 29.2 210.514 29.2467 210.874 29.34C211.247 29.4333 211.587 29.5667 211.894 29.74C212.214 29.9 212.494 30.0867 212.734 30.3C212.987 30.5 213.194 30.72 213.354 30.96C213.514 31.2 213.614 31.44 213.654 31.68L213.074 31.84L213.154 29.42H215.874V39.2C215.874 40.0667 215.747 40.8333 215.494 41.5C215.24 42.1667 214.867 42.7267 214.374 43.18C213.894 43.6467 213.3 44 212.594 44.24C211.9 44.48 211.12 44.6 210.254 44.6ZM210.334 37.72C210.894 37.72 211.38 37.5933 211.794 37.34C212.22 37.0867 212.547 36.7333 212.774 36.28C213 35.8267 213.114 35.2933 213.114 34.68C213.114 34.08 213 33.5533 212.774 33.1C212.547 32.6333 212.22 32.2733 211.794 32.02C211.38 31.7667 210.894 31.64 210.334 31.64C209.787 31.64 209.3 31.7733 208.874 32.04C208.46 32.2933 208.14 32.6467 207.914 33.1C207.687 33.5533 207.574 34.08 207.574 34.68C207.574 35.28 207.687 35.8133 207.914 36.28C208.14 36.7333 208.46 37.0867 208.874 37.34C209.3 37.5933 209.787 37.72 210.334 37.72ZM228.314 40.2C227.834 40.2 227.381 40.14 226.954 40.02C226.528 39.9 226.134 39.7333 225.774 39.52C225.414 39.2933 225.094 39.0267 224.814 38.72C224.534 38.4 224.288 38.0467 224.074 37.66L225.654 36.04C225.894 36.3867 226.121 36.6733 226.334 36.9C226.548 37.1267 226.748 37.3 226.934 37.42C227.134 37.54 227.334 37.6267 227.534 37.68C227.748 37.7333 227.961 37.76 228.174 37.76C228.601 37.76 228.974 37.6667 229.294 37.48C229.614 37.28 229.861 37.0067 230.034 36.66C230.221 36.3133 230.314 35.92 230.314 35.48V28.34H227.734V26H235.034V28.34H232.874V35.74C232.874 36.3933 232.761 36.9933 232.534 37.54C232.308 38.0733 231.988 38.54 231.574 38.94C231.174 39.34 230.694 39.6533 230.134 39.88C229.588 40.0933 228.981 40.2 228.314 40.2ZM240.266 40.2C239.506 40.2 238.846 40.0333 238.286 39.7C237.726 39.3533 237.299 38.8667 237.006 38.24C236.713 37.6 236.566 36.84 236.566 35.96V29.46H239.026V35.44C239.026 36 239.113 36.48 239.286 36.88C239.459 37.2667 239.713 37.5667 240.046 37.78C240.379 37.9933 240.779 38.1 241.246 38.1C241.593 38.1 241.906 38.0467 242.186 37.94C242.479 37.82 242.733 37.66 242.946 37.46C243.159 37.2467 243.326 37 243.446 36.72C243.566 36.4267 243.626 36.1133 243.626 35.78V29.46H246.086V40H243.686L243.646 37.8L244.086 37.56C243.926 38.0667 243.653 38.52 243.266 38.92C242.893 39.3067 242.446 39.62 241.926 39.86C241.406 40.0867 240.853 40.2 240.266 40.2ZM252.489 40.2C251.556 40.2 250.716 40.0467 249.969 39.74C249.236 39.42 248.636 38.9667 248.169 38.38L249.769 37C250.169 37.4533 250.616 37.78 251.109 37.98C251.603 38.18 252.123 38.28 252.669 38.28C252.896 38.28 253.096 38.2533 253.269 38.2C253.456 38.1467 253.616 38.0667 253.749 37.96C253.883 37.8533 253.983 37.7333 254.049 37.6C254.129 37.4533 254.169 37.2933 254.169 37.12C254.169 36.8 254.049 36.5467 253.809 36.36C253.676 36.2667 253.463 36.1667 253.169 36.06C252.889 35.9533 252.523 35.8467 252.069 35.74C251.349 35.5533 250.749 35.34 250.269 35.1C249.789 34.8467 249.416 34.5667 249.149 34.26C248.923 34.0067 248.749 33.72 248.629 33.4C248.523 33.08 248.469 32.7333 248.469 32.36C248.469 31.8933 248.569 31.4733 248.769 31.1C248.983 30.7133 249.269 30.38 249.629 30.1C249.989 29.82 250.409 29.6067 250.889 29.46C251.369 29.3133 251.869 29.24 252.389 29.24C252.923 29.24 253.436 29.3067 253.929 29.44C254.436 29.5733 254.903 29.7667 255.329 30.02C255.769 30.26 256.143 30.5533 256.449 30.9L255.089 32.4C254.836 32.16 254.556 31.9467 254.249 31.76C253.956 31.5733 253.656 31.4267 253.349 31.32C253.043 31.2 252.756 31.14 252.489 31.14C252.236 31.14 252.009 31.1667 251.809 31.22C251.609 31.26 251.443 31.3267 251.309 31.42C251.176 31.5133 251.069 31.6333 250.989 31.78C250.923 31.9133 250.889 32.0733 250.889 32.26C250.903 32.42 250.943 32.5733 251.009 32.72C251.089 32.8533 251.196 32.9667 251.329 33.06C251.476 33.1533 251.696 33.26 251.989 33.38C252.283 33.5 252.663 33.6133 253.129 33.72C253.783 33.8933 254.329 34.0867 254.769 34.3C255.209 34.5133 255.556 34.76 255.809 35.04C256.063 35.28 256.243 35.56 256.349 35.88C256.456 36.2 256.509 36.5533 256.509 36.94C256.509 37.5667 256.329 38.1267 255.969 38.62C255.623 39.1133 255.143 39.5 254.529 39.78C253.929 40.06 253.249 40.2 252.489 40.2ZM259.816 40V26.78H262.276V40H259.816ZM257.736 31.74V29.46H264.576V31.74H257.736ZM272.349 40V37.7H274.649V28.3H272.349V26H279.549V28.3H277.249V37.7H279.549V40H272.349ZM282.426 40V29.46H284.826L284.866 31.62L284.406 31.86C284.54 31.38 284.8 30.9467 285.186 30.56C285.573 30.16 286.033 29.84 286.566 29.6C287.1 29.36 287.646 29.24 288.206 29.24C289.006 29.24 289.673 29.4 290.206 29.72C290.753 30.04 291.16 30.52 291.426 31.16C291.706 31.8 291.846 32.6 291.846 33.56V40H289.386V33.74C289.386 33.2067 289.313 32.7667 289.166 32.42C289.02 32.06 288.793 31.8 288.486 31.64C288.18 31.4667 287.806 31.3867 287.366 31.4C287.006 31.4 286.673 31.46 286.366 31.58C286.073 31.6867 285.813 31.8467 285.586 32.06C285.373 32.26 285.2 32.4933 285.066 32.76C284.946 33.0267 284.886 33.32 284.886 33.64V40H283.666C283.426 40 283.2 40 282.986 40C282.786 40 282.6 40 282.426 40Z" fill="#070707"/>
<path d="M152.106 65.2C151.066 65.2 150.16 64.9733 149.386 64.52C148.613 64.0533 147.9 63.2667 147.246 62.16L149.206 60.92C149.513 61.4133 149.826 61.8133 150.146 62.12C150.48 62.4133 150.813 62.6333 151.146 62.78C151.493 62.9133 151.86 62.98 152.246 62.98C152.686 62.98 153.086 62.8733 153.446 62.66C153.82 62.4467 154.113 62.1533 154.326 61.78C154.553 61.4067 154.666 60.98 154.666 60.5C154.666 60.02 154.573 59.6133 154.386 59.28C154.213 58.9467 153.953 58.6933 153.606 58.52C153.273 58.3333 152.866 58.24 152.386 58.24C152.173 58.24 151.946 58.2667 151.706 58.32C151.466 58.36 151.213 58.4267 150.946 58.52C150.68 58.6 150.386 58.7 150.066 58.82L149.426 57.12L153.406 52.72L154.006 53.3L148.106 53.26V50.96H156.326L156.806 51.92L152.206 56.94L151.606 56.28C151.713 56.2267 151.886 56.18 152.126 56.14C152.38 56.0867 152.6 56.06 152.786 56.06C153.373 56.06 153.933 56.1733 154.466 56.4C155 56.6133 155.46 56.92 155.846 57.32C156.246 57.72 156.56 58.1867 156.786 58.72C157.013 59.24 157.126 59.8067 157.126 60.42C157.126 61.34 156.9 62.16 156.446 62.88C156.006 63.5867 155.406 64.1533 154.646 64.58C153.886 64.9933 153.04 65.2 152.106 65.2ZM170.041 65.2C169.227 65.2 168.481 65.1 167.801 64.9C167.121 64.6867 166.507 64.3733 165.961 63.96C165.414 63.5467 164.927 63.0467 164.501 62.46L166.201 60.54C166.854 61.4467 167.494 62.0733 168.121 62.42C168.747 62.7667 169.454 62.94 170.241 62.94C170.694 62.94 171.107 62.8733 171.481 62.74C171.854 62.5933 172.147 62.4 172.361 62.16C172.574 61.9067 172.681 61.62 172.681 61.3C172.681 61.0733 172.634 60.8667 172.541 60.68C172.461 60.48 172.334 60.3067 172.161 60.16C171.987 60 171.774 59.8533 171.521 59.72C171.267 59.5867 170.981 59.4733 170.661 59.38C170.341 59.2867 169.987 59.2 169.601 59.12C168.867 58.9733 168.227 58.78 167.681 58.54C167.134 58.2867 166.674 57.98 166.301 57.62C165.927 57.2467 165.654 56.8333 165.481 56.38C165.307 55.9133 165.221 55.3867 165.221 54.8C165.221 54.2133 165.347 53.6733 165.601 53.18C165.867 52.6867 166.227 52.26 166.681 51.9C167.134 51.54 167.661 51.26 168.261 51.06C168.861 50.86 169.507 50.76 170.201 50.76C170.987 50.76 171.687 50.8533 172.301 51.04C172.927 51.2267 173.474 51.5067 173.941 51.88C174.421 52.24 174.814 52.68 175.121 53.2L173.401 54.9C173.134 54.4867 172.834 54.1467 172.501 53.88C172.167 53.6 171.807 53.3933 171.421 53.26C171.034 53.1133 170.627 53.04 170.201 53.04C169.721 53.04 169.301 53.1067 168.941 53.24C168.594 53.3733 168.321 53.5667 168.121 53.82C167.921 54.06 167.821 54.3533 167.821 54.7C167.821 54.9667 167.881 55.2067 168.001 55.42C168.121 55.62 168.287 55.8 168.501 55.96C168.727 56.12 169.014 56.26 169.361 56.38C169.707 56.5 170.101 56.6067 170.541 56.7C171.274 56.8467 171.934 57.0467 172.521 57.3C173.107 57.54 173.607 57.8333 174.021 58.18C174.434 58.5133 174.747 58.9 174.961 59.34C175.174 59.7667 175.281 60.2467 175.281 60.78C175.281 61.7 175.061 62.4933 174.621 63.16C174.194 63.8133 173.587 64.32 172.801 64.68C172.014 65.0267 171.094 65.2 170.041 65.2ZM178.84 65V51.78H181.3V65H178.84ZM176.76 56.74V54.46H183.6V56.74H176.76ZM190.316 65.2C189.209 65.2 188.229 64.9667 187.376 64.5C186.536 64.0333 185.876 63.4 185.396 62.6C184.929 61.7867 184.696 60.86 184.696 59.82C184.696 58.9933 184.829 58.24 185.096 57.56C185.362 56.88 185.729 56.2933 186.196 55.8C186.676 55.2933 187.242 54.9067 187.896 54.64C188.562 54.36 189.289 54.22 190.076 54.22C190.769 54.22 191.416 54.3533 192.016 54.62C192.616 54.8867 193.136 55.2533 193.576 55.72C194.016 56.1733 194.349 56.72 194.576 57.36C194.816 57.9867 194.929 58.6733 194.916 59.42L194.896 60.28H186.356L185.896 58.6H192.836L192.516 58.94V58.5C192.476 58.0867 192.342 57.7267 192.116 57.42C191.889 57.1 191.596 56.8533 191.236 56.68C190.889 56.4933 190.502 56.4 190.076 56.4C189.422 56.4 188.869 56.5267 188.416 56.78C187.976 57.0333 187.642 57.4 187.416 57.88C187.189 58.3467 187.076 58.9333 187.076 59.64C187.076 60.32 187.216 60.9133 187.496 61.42C187.789 61.9267 188.196 62.32 188.716 62.6C189.249 62.8667 189.869 63 190.576 63C191.069 63 191.522 62.92 191.936 62.76C192.349 62.6 192.796 62.3133 193.276 61.9L194.496 63.6C194.136 63.9333 193.722 64.22 193.256 64.46C192.802 64.6867 192.322 64.8667 191.816 65C191.309 65.1333 190.809 65.2 190.316 65.2ZM197.094 69.4V54.46H199.514L199.554 56.86L199.134 56.68C199.214 56.2667 199.441 55.88 199.814 55.52C200.188 55.1467 200.641 54.8467 201.174 54.62C201.721 54.3933 202.288 54.28 202.874 54.28C203.808 54.28 204.634 54.5133 205.354 54.98C206.088 55.4467 206.661 56.0867 207.074 56.9C207.501 57.7133 207.714 58.6533 207.714 59.72C207.714 60.7733 207.501 61.7133 207.074 62.54C206.661 63.3533 206.088 64 205.354 64.48C204.634 64.9467 203.821 65.18 202.914 65.18C202.301 65.18 201.708 65.06 201.134 64.82C200.574 64.58 200.094 64.2667 199.694 63.88C199.308 63.4933 199.068 63.0867 198.974 62.66L199.574 62.38V69.4H197.094ZM202.414 63C202.974 63 203.474 62.86 203.914 62.58C204.354 62.3 204.694 61.9133 204.934 61.42C205.188 60.9267 205.314 60.36 205.314 59.72C205.314 59.08 205.194 58.52 204.954 58.04C204.714 57.5467 204.374 57.16 203.934 56.88C203.494 56.6 202.988 56.46 202.414 56.46C201.828 56.46 201.314 56.6 200.874 56.88C200.448 57.1467 200.108 57.5267 199.854 58.02C199.601 58.5133 199.474 59.08 199.474 59.72C199.474 60.36 199.601 60.9267 199.854 61.42C200.108 61.9133 200.448 62.3 200.874 62.58C201.314 62.86 201.828 63 202.414 63ZM213.427 65.2C212.493 65.2 211.653 65.0467 210.907 64.74C210.173 64.42 209.573 63.9667 209.107 63.38L210.707 62C211.107 62.4533 211.553 62.78 212.047 62.98C212.54 63.18 213.06 63.28 213.607 63.28C213.833 63.28 214.033 63.2533 214.207 63.2C214.393 63.1467 214.553 63.0667 214.687 62.96C214.82 62.8533 214.92 62.7333 214.987 62.6C215.067 62.4533 215.107 62.2933 215.107 62.12C215.107 61.8 214.987 61.5467 214.747 61.36C214.613 61.2667 214.4 61.1667 214.107 61.06C213.827 60.9533 213.46 60.8467 213.007 60.74C212.287 60.5533 211.687 60.34 211.207 60.1C210.727 59.8467 210.353 59.5667 210.087 59.26C209.86 59.0067 209.687 58.72 209.567 58.4C209.46 58.08 209.407 57.7333 209.407 57.36C209.407 56.8933 209.507 56.4733 209.707 56.1C209.92 55.7133 210.207 55.38 210.567 55.1C210.927 54.82 211.347 54.6067 211.827 54.46C212.307 54.3133 212.807 54.24 213.327 54.24C213.86 54.24 214.373 54.3067 214.867 54.44C215.373 54.5733 215.84 54.7667 216.267 55.02C216.707 55.26 217.08 55.5533 217.387 55.9L216.027 57.4C215.773 57.16 215.493 56.9467 215.187 56.76C214.893 56.5733 214.593 56.4267 214.287 56.32C213.98 56.2 213.693 56.14 213.427 56.14C213.173 56.14 212.947 56.1667 212.747 56.22C212.547 56.26 212.38 56.3267 212.247 56.42C212.113 56.5133 212.007 56.6333 211.927 56.78C211.86 56.9133 211.827 57.0733 211.827 57.26C211.84 57.42 211.88 57.5733 211.947 57.72C212.027 57.8533 212.133 57.9667 212.267 58.06C212.413 58.1533 212.633 58.26 212.927 58.38C213.22 58.5 213.6 58.6133 214.067 58.72C214.72 58.8933 215.267 59.0867 215.707 59.3C216.147 59.5133 216.493 59.76 216.747 60.04C217 60.28 217.18 60.56 217.287 60.88C217.393 61.2 217.447 61.5533 217.447 61.94C217.447 62.5667 217.267 63.1267 216.907 63.62C216.56 64.1133 216.08 64.5 215.467 64.78C214.867 65.06 214.187 65.2 213.427 65.2Z" fill="url(#paint0_linear_41_297)"/>
<path d="M240.882 359.667C272.724 359.667 298.537 355.805 298.537 351.041C298.537 346.277 272.724 342.415 240.882 342.415C209.041 342.415 183.228 346.277 183.228 351.041C183.228 355.805 209.041 359.667 240.882 359.667Z" fill="#DAEFD9"/>
<path d="M265.819 119.32C268.687 118.024 271.671 116.833 274.81 116.602C277.949 116.37 281.304 117.225 283.473 119.506C285.545 121.685 286.268 124.849 286.253 127.856C286.207 137.161 280.044 145.336 273.14 151.574C266.471 157.6 258.837 162.555 250.617 166.191C245.106 168.63 239.246 170.494 233.222 170.691C229.455 170.814 219.071 170.072 217.036 166.007C215.619 163.179 222.813 154.727 224.656 152.241C231.43 143.101 239.791 135.162 249.158 128.718C254.419 125.1 260.002 121.95 265.819 119.32Z" fill="#E1ECFD"/>
<path d="M81.2119 189.814C79.5829 190.598 77.8866 191.323 76.0873 191.499C74.2879 191.674 72.3507 191.23 71.0742 189.95C69.8546 188.727 69.3968 186.921 69.3637 185.194C69.262 179.851 72.6884 175.074 76.5671 171.397C80.3134 167.846 84.6285 164.897 89.2971 162.697C92.4276 161.221 95.8043 160.422 99.2222 159.875C106.001 158.79 109.377 164.361 104.393 170.35C100.214 175.372 95.9386 180.363 90.6491 184.191C87.678 186.34 84.5157 188.224 81.2119 189.814Z" fill="#E1ECFD"/>
<path d="M280.164 237.583C278.535 238.367 276.838 239.091 275.039 239.267C273.24 239.443 271.302 238.998 270.026 237.719C268.806 236.496 268.349 234.689 268.316 232.963C268.214 227.62 271.64 222.842 275.519 219.166C279.265 215.615 283.58 212.666 288.249 210.465C291.379 208.99 294.756 208.191 298.174 207.644C304.953 206.559 308.329 212.129 303.345 218.119C299.166 223.141 294.89 228.132 289.601 231.96C286.63 234.108 283.468 235.994 280.164 237.583Z" fill="#E1ECFD"/>
<path d="M137.578 125.413C135.817 125.824 134.003 126.162 132.209 125.942C130.415 125.723 128.62 124.867 127.653 123.34C126.728 121.881 126.674 120.018 127.018 118.326C128.081 113.089 132.464 109.171 137.049 106.426C141.478 103.775 146.331 101.835 151.367 100.703C154.744 99.9438 158.214 99.8985 161.668 100.107C168.521 100.522 170.604 106.694 164.437 111.457C159.266 115.449 154.007 119.391 148.011 121.976C144.644 123.428 141.148 124.58 137.578 125.413Z" fill="#E1ECFD"/>
<path d="M229.538 320.036H139.352C136.556 320.036 134.29 317.77 134.29 314.974V126.873C134.29 124.077 136.556 121.811 139.352 121.811H229.538C232.334 121.811 234.599 124.077 234.599 126.873V314.975C234.6 317.77 232.334 320.036 229.538 320.036Z" fill="#AAC6EF"/>
<path d="M223.806 317.269H133.62C130.824 317.269 128.558 315.003 128.558 312.208V124.106C128.558 121.31 130.824 119.044 133.62 119.044H223.806C226.602 119.044 228.868 121.31 228.868 124.106V312.208C228.868 315.003 226.602 317.269 223.806 317.269Z" fill="#C6DCFD"/>
<path d="M218.122 294.218H139.303C137.917 294.218 136.793 293.094 136.793 291.708V135.835C136.793 134.449 137.917 133.325 139.303 133.325H218.122C219.509 133.325 220.632 134.449 220.632 135.835V291.708C220.632 293.094 219.508 294.218 218.122 294.218Z" fill="#E1ECFD"/>
<path d="M214.16 144.52H111.369V191.125H214.16V144.52Z" fill="#D5D7E0"/>
<path d="M219.242 140.448H116.283V183.347H219.242V140.448Z" fill="white"/>
<path d="M126.53 158.514C125.99 158.514 125.494 158.424 125.04 158.244C124.594 158.058 124.207 157.801 123.88 157.474C123.554 157.148 123.3 156.764 123.12 156.324C122.947 155.884 122.86 155.408 122.86 154.894C122.86 154.381 122.95 153.908 123.13 153.474C123.317 153.034 123.577 152.654 123.91 152.334C124.25 152.008 124.647 151.754 125.1 151.574C125.554 151.394 126.05 151.304 126.59 151.304C126.964 151.304 127.32 151.354 127.66 151.454C128 151.554 128.31 151.691 128.59 151.864C128.87 152.038 129.104 152.238 129.29 152.464L128.36 153.444C128.187 153.278 128.004 153.138 127.81 153.024C127.624 152.904 127.427 152.814 127.22 152.754C127.014 152.688 126.8 152.654 126.58 152.654C126.267 152.654 125.977 152.711 125.71 152.824C125.45 152.938 125.22 153.094 125.02 153.294C124.82 153.494 124.664 153.731 124.55 154.004C124.444 154.278 124.39 154.574 124.39 154.894C124.39 155.208 124.447 155.504 124.56 155.784C124.68 156.058 124.84 156.298 125.04 156.504C125.247 156.704 125.487 156.864 125.76 156.984C126.034 157.098 126.327 157.154 126.64 157.154C126.86 157.154 127.07 157.121 127.27 157.054C127.47 156.988 127.644 156.894 127.79 156.774C127.944 156.648 128.06 156.501 128.14 156.334C128.227 156.168 128.27 155.991 128.27 155.804V155.564L128.47 155.844H126.47V154.594H129.71C129.717 154.668 129.724 154.758 129.73 154.864C129.744 154.971 129.75 155.078 129.75 155.184C129.757 155.284 129.76 155.364 129.76 155.424C129.76 155.878 129.677 156.294 129.51 156.674C129.35 157.054 129.124 157.381 128.83 157.654C128.544 157.928 128.204 158.141 127.81 158.294C127.417 158.441 126.99 158.514 126.53 158.514ZM130.884 158.414V153.124H132.254L132.304 154.824L132.064 154.474C132.144 154.201 132.274 153.954 132.454 153.734C132.634 153.508 132.844 153.331 133.084 153.204C133.331 153.078 133.587 153.014 133.854 153.014C133.967 153.014 134.077 153.024 134.184 153.044C134.291 153.064 134.381 153.088 134.454 153.114L134.074 154.674C133.994 154.634 133.897 154.601 133.784 154.574C133.671 154.541 133.554 154.524 133.434 154.524C133.274 154.524 133.124 154.554 132.984 154.614C132.851 154.668 132.734 154.748 132.634 154.854C132.534 154.954 132.454 155.074 132.394 155.214C132.341 155.354 132.314 155.508 132.314 155.674V158.414H130.884ZM137.504 158.514C136.964 158.514 136.481 158.398 136.054 158.164C135.634 157.924 135.301 157.598 135.054 157.184C134.814 156.771 134.694 156.298 134.694 155.764C134.694 155.231 134.814 154.761 135.054 154.354C135.301 153.941 135.634 153.614 136.054 153.374C136.481 153.134 136.964 153.014 137.504 153.014C138.037 153.014 138.514 153.134 138.934 153.374C139.361 153.614 139.694 153.941 139.934 154.354C140.174 154.761 140.294 155.231 140.294 155.764C140.294 156.298 140.174 156.771 139.934 157.184C139.694 157.598 139.361 157.924 138.934 158.164C138.514 158.398 138.037 158.514 137.504 158.514ZM137.504 157.274C137.764 157.274 137.997 157.211 138.204 157.084C138.411 156.951 138.571 156.771 138.684 156.544C138.804 156.311 138.864 156.051 138.864 155.764C138.864 155.471 138.804 155.211 138.684 154.984C138.571 154.751 138.411 154.571 138.204 154.444C137.997 154.311 137.764 154.244 137.504 154.244C137.237 154.244 137.001 154.311 136.794 154.444C136.587 154.578 136.424 154.758 136.304 154.984C136.184 155.211 136.127 155.471 136.134 155.764C136.127 156.051 136.184 156.311 136.304 156.544C136.424 156.771 136.587 156.951 136.794 157.084C137.001 157.211 137.237 157.274 137.504 157.274ZM143.182 158.514C142.796 158.514 142.462 158.431 142.182 158.264C141.909 158.091 141.696 157.848 141.542 157.534C141.396 157.214 141.322 156.831 141.322 156.384V153.124H142.742V156.154C142.742 156.394 142.782 156.604 142.862 156.784C142.942 156.958 143.056 157.091 143.202 157.184C143.349 157.278 143.529 157.324 143.742 157.324C143.896 157.324 144.039 157.301 144.172 157.254C144.306 157.201 144.419 157.128 144.512 157.034C144.606 156.941 144.679 156.831 144.732 156.704C144.786 156.578 144.812 156.441 144.812 156.294V153.124H146.232V158.414H144.882L144.832 157.324L145.092 157.204C145.012 157.451 144.879 157.674 144.692 157.874C144.506 158.074 144.282 158.231 144.022 158.344C143.762 158.458 143.482 158.514 143.182 158.514ZM147.661 160.614V153.124H149.031L149.071 154.314L148.811 154.224C148.858 154.011 148.971 153.814 149.151 153.634C149.338 153.454 149.568 153.308 149.841 153.194C150.115 153.081 150.401 153.024 150.701 153.024C151.161 153.024 151.568 153.144 151.921 153.384C152.281 153.618 152.565 153.941 152.771 154.354C152.985 154.761 153.091 155.231 153.091 155.764C153.091 156.291 152.988 156.761 152.781 157.174C152.575 157.588 152.291 157.914 151.931 158.154C151.571 158.388 151.161 158.504 150.701 158.504C150.395 158.504 150.101 158.448 149.821 158.334C149.548 158.214 149.315 158.058 149.121 157.864C148.928 157.671 148.808 157.464 148.761 157.244L149.091 157.104V160.614H147.661ZM150.381 157.284C150.641 157.284 150.871 157.221 151.071 157.094C151.271 156.968 151.428 156.791 151.541 156.564C151.655 156.331 151.711 156.064 151.711 155.764C151.711 155.464 151.655 155.201 151.541 154.974C151.428 154.748 151.271 154.571 151.071 154.444C150.878 154.318 150.648 154.254 150.381 154.254C150.115 154.254 149.881 154.318 149.681 154.444C149.481 154.564 149.325 154.741 149.211 154.974C149.098 155.201 149.041 155.464 149.041 155.764C149.041 156.064 149.098 156.331 149.211 156.564C149.325 156.791 149.481 156.968 149.681 157.094C149.881 157.221 150.115 157.284 150.381 157.284ZM157.432 158.414V151.414H160.472C160.938 151.414 161.332 151.484 161.652 151.624C161.978 151.758 162.225 151.954 162.392 152.214C162.558 152.474 162.642 152.784 162.642 153.144C162.642 153.544 162.542 153.878 162.342 154.144C162.142 154.411 161.855 154.594 161.482 154.694L161.472 154.494C161.778 154.568 162.048 154.688 162.282 154.854C162.515 155.021 162.695 155.228 162.822 155.474C162.948 155.721 163.012 156.001 163.012 156.314C163.012 156.661 162.955 156.968 162.842 157.234C162.728 157.494 162.562 157.711 162.342 157.884C162.122 158.058 161.862 158.191 161.562 158.284C161.268 158.371 160.938 158.414 160.572 158.414H157.432ZM158.872 157.114H160.512C160.725 157.114 160.905 157.084 161.052 157.024C161.205 156.958 161.322 156.858 161.402 156.724C161.482 156.591 161.522 156.434 161.522 156.254C161.522 156.081 161.478 155.934 161.392 155.814C161.305 155.694 161.182 155.604 161.022 155.544C160.868 155.478 160.682 155.444 160.462 155.444H158.872V157.114ZM158.872 154.254H160.292C160.472 154.254 160.628 154.221 160.762 154.154C160.895 154.088 160.995 153.998 161.062 153.884C161.135 153.771 161.172 153.638 161.172 153.484C161.172 153.238 161.092 153.048 160.932 152.914C160.772 152.781 160.532 152.714 160.212 152.714H158.872V154.254ZM166.625 158.514C166.085 158.514 165.602 158.398 165.175 158.164C164.755 157.924 164.422 157.598 164.175 157.184C163.935 156.771 163.815 156.298 163.815 155.764C163.815 155.231 163.935 154.761 164.175 154.354C164.422 153.941 164.755 153.614 165.175 153.374C165.602 153.134 166.085 153.014 166.625 153.014C167.158 153.014 167.635 153.134 168.055 153.374C168.482 153.614 168.815 153.941 169.055 154.354C169.295 154.761 169.415 155.231 169.415 155.764C169.415 156.298 169.295 156.771 169.055 157.184C168.815 157.598 168.482 157.924 168.055 158.164C167.635 158.398 167.158 158.514 166.625 158.514ZM166.625 157.274C166.885 157.274 167.118 157.211 167.325 157.084C167.532 156.951 167.692 156.771 167.805 156.544C167.925 156.311 167.985 156.051 167.985 155.764C167.985 155.471 167.925 155.211 167.805 154.984C167.692 154.751 167.532 154.571 167.325 154.444C167.118 154.311 166.885 154.244 166.625 154.244C166.358 154.244 166.122 154.311 165.915 154.444C165.708 154.578 165.545 154.758 165.425 154.984C165.305 155.211 165.248 155.471 165.255 155.764C165.248 156.051 165.305 156.311 165.425 156.544C165.545 156.771 165.708 156.951 165.915 157.084C166.122 157.211 166.358 157.274 166.625 157.274ZM172.944 158.514C172.404 158.514 171.92 158.398 171.494 158.164C171.074 157.924 170.74 157.598 170.494 157.184C170.254 156.771 170.134 156.298 170.134 155.764C170.134 155.231 170.254 154.761 170.494 154.354C170.74 153.941 171.074 153.614 171.494 153.374C171.92 153.134 172.404 153.014 172.944 153.014C173.477 153.014 173.954 153.134 174.374 153.374C174.8 153.614 175.134 153.941 175.374 154.354C175.614 154.761 175.734 155.231 175.734 155.764C175.734 156.298 175.614 156.771 175.374 157.184C175.134 157.598 174.8 157.924 174.374 158.164C173.954 158.398 173.477 158.514 172.944 158.514ZM172.944 157.274C173.204 157.274 173.437 157.211 173.644 157.084C173.85 156.951 174.01 156.771 174.124 156.544C174.244 156.311 174.304 156.051 174.304 155.764C174.304 155.471 174.244 155.211 174.124 154.984C174.01 154.751 173.85 154.571 173.644 154.444C173.437 154.311 173.204 154.244 172.944 154.244C172.677 154.244 172.44 154.311 172.234 154.444C172.027 154.578 171.864 154.758 171.744 154.984C171.624 155.211 171.567 155.471 171.574 155.764C171.567 156.051 171.624 156.311 171.744 156.544C171.864 156.771 172.027 156.951 172.234 157.084C172.44 157.211 172.677 157.274 172.944 157.274ZM178.152 156.824L177.732 155.654L180.232 153.124H182.102L178.152 156.824ZM176.802 158.414V151.014H178.222V158.414H176.802ZM180.382 158.414L178.482 156.024L179.482 155.224L182.092 158.414H180.382ZM182.996 158.414V153.124H184.416V158.414H182.996ZM183.696 152.034C183.423 152.034 183.209 151.968 183.056 151.834C182.903 151.701 182.826 151.511 182.826 151.264C182.826 151.038 182.903 150.854 183.056 150.714C183.216 150.568 183.429 150.494 183.696 150.494C183.969 150.494 184.183 150.564 184.336 150.704C184.489 150.838 184.566 151.024 184.566 151.264C184.566 151.498 184.486 151.684 184.326 151.824C184.173 151.964 183.963 152.034 183.696 152.034ZM185.933 158.414V153.124H187.293L187.333 154.204L187.053 154.324C187.126 154.084 187.256 153.868 187.443 153.674C187.636 153.474 187.866 153.314 188.133 153.194C188.399 153.074 188.679 153.014 188.973 153.014C189.373 153.014 189.706 153.094 189.973 153.254C190.246 153.414 190.449 153.658 190.583 153.984C190.723 154.304 190.793 154.701 190.793 155.174V158.414H189.373V155.284C189.373 155.044 189.339 154.844 189.273 154.684C189.206 154.524 189.103 154.408 188.963 154.334C188.829 154.254 188.663 154.221 188.463 154.234C188.303 154.234 188.153 154.261 188.013 154.314C187.879 154.361 187.763 154.431 187.663 154.524C187.569 154.618 187.493 154.724 187.433 154.844C187.379 154.964 187.353 155.094 187.353 155.234V158.414H186.653C186.499 158.414 186.363 158.414 186.243 158.414C186.123 158.414 186.019 158.414 185.933 158.414ZM194.563 160.714C194.143 160.714 193.73 160.651 193.323 160.524C192.917 160.404 192.587 160.248 192.333 160.054L192.833 159.034C192.967 159.128 193.12 159.211 193.293 159.284C193.467 159.358 193.647 159.414 193.833 159.454C194.027 159.494 194.223 159.514 194.423 159.514C194.77 159.514 195.053 159.461 195.273 159.354C195.5 159.248 195.67 159.088 195.783 158.874C195.897 158.668 195.953 158.401 195.953 158.074V157.154L196.193 157.204C196.153 157.424 196.043 157.628 195.863 157.814C195.683 157.994 195.457 158.141 195.183 158.254C194.91 158.361 194.63 158.414 194.343 158.414C193.85 158.414 193.413 158.301 193.033 158.074C192.653 157.848 192.353 157.534 192.133 157.134C191.913 156.734 191.803 156.274 191.803 155.754C191.803 155.221 191.91 154.751 192.123 154.344C192.343 153.931 192.64 153.608 193.013 153.374C193.393 153.134 193.823 153.014 194.303 153.014C194.503 153.014 194.693 153.038 194.873 153.084C195.06 153.131 195.23 153.198 195.383 153.284C195.543 153.364 195.683 153.458 195.803 153.564C195.93 153.664 196.033 153.774 196.113 153.894C196.193 154.014 196.243 154.134 196.263 154.254L195.973 154.334L196.013 153.124H197.373V158.014C197.373 158.448 197.31 158.831 197.183 159.164C197.057 159.498 196.87 159.778 196.623 160.004C196.383 160.238 196.087 160.414 195.733 160.534C195.387 160.654 194.997 160.714 194.563 160.714ZM194.603 157.274C194.883 157.274 195.127 157.211 195.333 157.084C195.547 156.958 195.71 156.781 195.823 156.554C195.937 156.328 195.993 156.061 195.993 155.754C195.993 155.454 195.937 155.191 195.823 154.964C195.71 154.731 195.547 154.551 195.333 154.424C195.127 154.298 194.883 154.234 194.603 154.234C194.33 154.234 194.087 154.301 193.873 154.434C193.667 154.561 193.507 154.738 193.393 154.964C193.28 155.191 193.223 155.454 193.223 155.754C193.223 156.054 193.28 156.321 193.393 156.554C193.507 156.781 193.667 156.958 193.873 157.084C194.087 157.211 194.33 157.274 194.603 157.274ZM124.99 171.514C124.75 171.514 124.524 171.484 124.31 171.424C124.097 171.364 123.9 171.281 123.72 171.174C123.54 171.061 123.38 170.928 123.24 170.774C123.1 170.614 122.977 170.438 122.87 170.244L123.66 169.434C123.78 169.608 123.894 169.751 124 169.864C124.107 169.978 124.207 170.064 124.3 170.124C124.4 170.184 124.5 170.228 124.6 170.254C124.707 170.281 124.814 170.294 124.92 170.294C125.134 170.294 125.32 170.248 125.48 170.154C125.64 170.054 125.764 169.918 125.85 169.744C125.944 169.571 125.99 169.374 125.99 169.154V165.584H124.7V164.414H128.35V165.584H127.27V169.284C127.27 169.611 127.214 169.911 127.1 170.184C126.987 170.451 126.827 170.684 126.62 170.884C126.42 171.084 126.18 171.241 125.9 171.354C125.627 171.461 125.324 171.514 124.99 171.514ZM130.966 171.514C130.586 171.514 130.256 171.431 129.976 171.264C129.696 171.091 129.483 170.848 129.336 170.534C129.189 170.214 129.116 169.834 129.116 169.394V166.144H130.346V169.134C130.346 169.414 130.389 169.654 130.476 169.854C130.563 170.048 130.689 170.198 130.856 170.304C131.023 170.411 131.223 170.464 131.456 170.464C131.629 170.464 131.786 170.438 131.926 170.384C132.073 170.324 132.199 170.244 132.306 170.144C132.413 170.038 132.496 169.914 132.556 169.774C132.616 169.628 132.646 169.471 132.646 169.304V166.144H133.876V171.414H132.676L132.656 170.314L132.876 170.194C132.796 170.448 132.659 170.674 132.466 170.874C132.279 171.068 132.056 171.224 131.796 171.344C131.536 171.458 131.259 171.514 130.966 171.514ZM137.078 171.514C136.611 171.514 136.191 171.438 135.818 171.284C135.451 171.124 135.151 170.898 134.918 170.604L135.718 169.914C135.918 170.141 136.141 170.304 136.388 170.404C136.634 170.504 136.894 170.554 137.168 170.554C137.281 170.554 137.381 170.541 137.468 170.514C137.561 170.488 137.641 170.448 137.708 170.394C137.774 170.341 137.824 170.281 137.858 170.214C137.898 170.141 137.918 170.061 137.918 169.974C137.918 169.814 137.858 169.688 137.738 169.594C137.671 169.548 137.564 169.498 137.418 169.444C137.278 169.391 137.094 169.338 136.868 169.284C136.508 169.191 136.208 169.084 135.968 168.964C135.728 168.838 135.541 168.698 135.408 168.544C135.294 168.418 135.208 168.274 135.148 168.114C135.094 167.954 135.068 167.781 135.068 167.594C135.068 167.361 135.118 167.151 135.218 166.964C135.324 166.771 135.468 166.604 135.648 166.464C135.828 166.324 136.038 166.218 136.278 166.144C136.518 166.071 136.768 166.034 137.028 166.034C137.294 166.034 137.551 166.068 137.798 166.134C138.051 166.201 138.284 166.298 138.498 166.424C138.718 166.544 138.904 166.691 139.058 166.864L138.378 167.614C138.251 167.494 138.111 167.388 137.958 167.294C137.811 167.201 137.661 167.128 137.508 167.074C137.354 167.014 137.211 166.984 137.078 166.984C136.951 166.984 136.838 166.998 136.738 167.024C136.638 167.044 136.554 167.078 136.488 167.124C136.421 167.171 136.368 167.231 136.328 167.304C136.294 167.371 136.278 167.451 136.278 167.544C136.284 167.624 136.304 167.701 136.338 167.774C136.378 167.841 136.431 167.898 136.498 167.944C136.571 167.991 136.681 168.044 136.828 168.104C136.974 168.164 137.164 168.221 137.398 168.274C137.724 168.361 137.998 168.458 138.218 168.564C138.438 168.671 138.611 168.794 138.738 168.934C138.864 169.054 138.954 169.194 139.008 169.354C139.061 169.514 139.088 169.691 139.088 169.884C139.088 170.198 138.998 170.478 138.818 170.724C138.644 170.971 138.404 171.164 138.098 171.304C137.798 171.444 137.458 171.514 137.078 171.514ZM140.741 171.414V164.804H141.971V171.414H140.741ZM139.701 167.284V166.144H143.121V167.284H139.701ZM147.007 171.414V170.264H148.157V165.564H147.007V164.414H150.607V165.564H149.457V170.264H150.607V171.414H147.007ZM152.046 171.414V166.144H153.246L153.266 167.224L153.036 167.344C153.103 167.104 153.233 166.888 153.426 166.694C153.62 166.494 153.85 166.334 154.116 166.214C154.383 166.094 154.656 166.034 154.936 166.034C155.336 166.034 155.67 166.114 155.936 166.274C156.21 166.434 156.413 166.674 156.546 166.994C156.686 167.314 156.756 167.714 156.756 168.194V171.414H155.526V168.284C155.526 168.018 155.49 167.798 155.416 167.624C155.343 167.444 155.23 167.314 155.076 167.234C154.923 167.148 154.736 167.108 154.516 167.114C154.336 167.114 154.17 167.144 154.016 167.204C153.87 167.258 153.74 167.338 153.626 167.444C153.52 167.544 153.433 167.661 153.366 167.794C153.306 167.928 153.276 168.074 153.276 168.234V171.414H152.666C152.546 171.414 152.433 171.414 152.326 171.414C152.226 171.414 152.133 171.414 152.046 171.414Z" fill="#070707"/>
<path d="M162.999 171.514C162.479 171.514 162.026 171.401 161.639 171.174C161.253 170.941 160.896 170.548 160.569 169.994L161.549 169.374C161.703 169.621 161.859 169.821 162.019 169.974C162.186 170.121 162.353 170.231 162.519 170.304C162.693 170.371 162.876 170.404 163.069 170.404C163.289 170.404 163.489 170.351 163.669 170.244C163.856 170.138 164.003 169.991 164.109 169.804C164.223 169.618 164.279 169.404 164.279 169.164C164.279 168.924 164.233 168.721 164.139 168.554C164.053 168.388 163.923 168.261 163.749 168.174C163.583 168.081 163.379 168.034 163.139 168.034C163.033 168.034 162.919 168.048 162.799 168.074C162.679 168.094 162.553 168.128 162.419 168.174C162.286 168.214 162.139 168.264 161.979 168.324L161.659 167.474L163.649 165.274L163.949 165.564L160.999 165.544V164.394H165.109L165.349 164.874L163.049 167.384L162.749 167.054C162.803 167.028 162.889 167.004 163.009 166.984C163.136 166.958 163.246 166.944 163.339 166.944C163.633 166.944 163.913 167.001 164.179 167.114C164.446 167.221 164.676 167.374 164.869 167.574C165.069 167.774 165.226 168.008 165.339 168.274C165.453 168.534 165.509 168.818 165.509 169.124C165.509 169.584 165.396 169.994 165.169 170.354C164.949 170.708 164.649 170.991 164.269 171.204C163.889 171.411 163.466 171.514 162.999 171.514ZM171.967 171.514C171.56 171.514 171.187 171.464 170.847 171.364C170.507 171.258 170.2 171.101 169.927 170.894C169.653 170.688 169.41 170.438 169.197 170.144L170.047 169.184C170.373 169.638 170.693 169.951 171.007 170.124C171.32 170.298 171.673 170.384 172.067 170.384C172.293 170.384 172.5 170.351 172.687 170.284C172.873 170.211 173.02 170.114 173.127 169.994C173.233 169.868 173.287 169.724 173.287 169.564C173.287 169.451 173.263 169.348 173.217 169.254C173.177 169.154 173.113 169.068 173.027 168.994C172.94 168.914 172.833 168.841 172.707 168.774C172.58 168.708 172.437 168.651 172.277 168.604C172.117 168.558 171.94 168.514 171.747 168.474C171.38 168.401 171.06 168.304 170.787 168.184C170.513 168.058 170.283 167.904 170.097 167.724C169.91 167.538 169.773 167.331 169.687 167.104C169.6 166.871 169.557 166.608 169.557 166.314C169.557 166.021 169.62 165.751 169.747 165.504C169.88 165.258 170.06 165.044 170.287 164.864C170.513 164.684 170.777 164.544 171.077 164.444C171.377 164.344 171.7 164.294 172.047 164.294C172.44 164.294 172.79 164.341 173.097 164.434C173.41 164.528 173.683 164.668 173.917 164.854C174.157 165.034 174.353 165.254 174.507 165.514L173.647 166.364C173.513 166.158 173.363 165.988 173.197 165.854C173.03 165.714 172.85 165.611 172.657 165.544C172.463 165.471 172.26 165.434 172.047 165.434C171.807 165.434 171.597 165.468 171.417 165.534C171.243 165.601 171.107 165.698 171.007 165.824C170.907 165.944 170.857 166.091 170.857 166.264C170.857 166.398 170.887 166.518 170.947 166.624C171.007 166.724 171.09 166.814 171.197 166.894C171.31 166.974 171.453 167.044 171.627 167.104C171.8 167.164 171.997 167.218 172.217 167.264C172.583 167.338 172.913 167.438 173.207 167.564C173.5 167.684 173.75 167.831 173.957 168.004C174.163 168.171 174.32 168.364 174.427 168.584C174.533 168.798 174.587 169.038 174.587 169.304C174.587 169.764 174.477 170.161 174.257 170.494C174.043 170.821 173.74 171.074 173.347 171.254C172.953 171.428 172.493 171.514 171.967 171.514ZM176.366 171.414V164.804H177.596V171.414H176.366ZM175.326 167.284V166.144H178.746V167.284H175.326ZM182.104 171.514C181.551 171.514 181.061 171.398 180.634 171.164C180.214 170.931 179.884 170.614 179.644 170.214C179.411 169.808 179.294 169.344 179.294 168.824C179.294 168.411 179.361 168.034 179.494 167.694C179.627 167.354 179.811 167.061 180.044 166.814C180.284 166.561 180.567 166.368 180.894 166.234C181.227 166.094 181.591 166.024 181.984 166.024C182.331 166.024 182.654 166.091 182.954 166.224C183.254 166.358 183.514 166.541 183.734 166.774C183.954 167.001 184.121 167.274 184.234 167.594C184.354 167.908 184.411 168.251 184.404 168.624L184.394 169.054H180.124L179.894 168.214H183.364L183.204 168.384V168.164C183.184 167.958 183.117 167.778 183.004 167.624C182.891 167.464 182.744 167.341 182.564 167.254C182.391 167.161 182.197 167.114 181.984 167.114C181.657 167.114 181.381 167.178 181.154 167.304C180.934 167.431 180.767 167.614 180.654 167.854C180.541 168.088 180.484 168.381 180.484 168.734C180.484 169.074 180.554 169.371 180.694 169.624C180.841 169.878 181.044 170.074 181.304 170.214C181.571 170.348 181.881 170.414 182.234 170.414C182.481 170.414 182.707 170.374 182.914 170.294C183.121 170.214 183.344 170.071 183.584 169.864L184.194 170.714C184.014 170.881 183.807 171.024 183.574 171.144C183.347 171.258 183.107 171.348 182.854 171.414C182.601 171.481 182.351 171.514 182.104 171.514ZM185.494 173.614V166.144H186.704L186.724 167.344L186.514 167.254C186.554 167.048 186.667 166.854 186.854 166.674C187.04 166.488 187.267 166.338 187.534 166.224C187.807 166.111 188.09 166.054 188.384 166.054C188.85 166.054 189.264 166.171 189.624 166.404C189.99 166.638 190.277 166.958 190.484 167.364C190.697 167.771 190.804 168.241 190.804 168.774C190.804 169.301 190.697 169.771 190.484 170.184C190.277 170.591 189.99 170.914 189.624 171.154C189.264 171.388 188.857 171.504 188.404 171.504C188.097 171.504 187.8 171.444 187.514 171.324C187.234 171.204 186.994 171.048 186.794 170.854C186.6 170.661 186.48 170.458 186.434 170.244L186.734 170.104V173.614H185.494ZM188.154 170.414C188.434 170.414 188.684 170.344 188.904 170.204C189.124 170.064 189.294 169.871 189.414 169.624C189.54 169.378 189.604 169.094 189.604 168.774C189.604 168.454 189.544 168.174 189.424 167.934C189.304 167.688 189.134 167.494 188.914 167.354C188.694 167.214 188.44 167.144 188.154 167.144C187.86 167.144 187.604 167.214 187.384 167.354C187.17 167.488 187 167.678 186.874 167.924C186.747 168.171 186.684 168.454 186.684 168.774C186.684 169.094 186.747 169.378 186.874 169.624C187 169.871 187.17 170.064 187.384 170.204C187.604 170.344 187.86 170.414 188.154 170.414ZM193.66 171.514C193.193 171.514 192.773 171.438 192.4 171.284C192.033 171.124 191.733 170.898 191.5 170.604L192.3 169.914C192.5 170.141 192.723 170.304 192.97 170.404C193.216 170.504 193.476 170.554 193.75 170.554C193.863 170.554 193.963 170.541 194.05 170.514C194.143 170.488 194.223 170.448 194.29 170.394C194.356 170.341 194.406 170.281 194.44 170.214C194.48 170.141 194.5 170.061 194.5 169.974C194.5 169.814 194.44 169.688 194.32 169.594C194.253 169.548 194.146 169.498 194 169.444C193.86 169.391 193.676 169.338 193.45 169.284C193.09 169.191 192.79 169.084 192.55 168.964C192.31 168.838 192.123 168.698 191.99 168.544C191.876 168.418 191.79 168.274 191.73 168.114C191.676 167.954 191.65 167.781 191.65 167.594C191.65 167.361 191.7 167.151 191.8 166.964C191.906 166.771 192.05 166.604 192.23 166.464C192.41 166.324 192.62 166.218 192.86 166.144C193.1 166.071 193.35 166.034 193.61 166.034C193.876 166.034 194.133 166.068 194.38 166.134C194.633 166.201 194.866 166.298 195.08 166.424C195.3 166.544 195.486 166.691 195.64 166.864L194.96 167.614C194.833 167.494 194.693 167.388 194.54 167.294C194.393 167.201 194.243 167.128 194.09 167.074C193.936 167.014 193.793 166.984 193.66 166.984C193.533 166.984 193.42 166.998 193.32 167.024C193.22 167.044 193.136 167.078 193.07 167.124C193.003 167.171 192.95 167.231 192.91 167.304C192.876 167.371 192.86 167.451 192.86 167.544C192.866 167.624 192.886 167.701 192.92 167.774C192.96 167.841 193.013 167.898 193.08 167.944C193.153 167.991 193.263 168.044 193.41 168.104C193.556 168.164 193.746 168.221 193.98 168.274C194.306 168.361 194.58 168.458 194.8 168.564C195.02 168.671 195.193 168.794 195.32 168.934C195.446 169.054 195.536 169.194 195.59 169.354C195.643 169.514 195.67 169.691 195.67 169.884C195.67 170.198 195.58 170.478 195.4 170.724C195.226 170.971 194.986 171.164 194.68 171.304C194.38 171.444 194.04 171.514 193.66 171.514Z" fill="url(#paint1_linear_41_297)"/>
<path d="M192.806 128.191H164.608C164.243 128.191 163.947 127.895 163.947 127.53V125.361C163.947 124.996 164.243 124.7 164.608 124.7H192.806C193.171 124.7 193.467 124.996 193.467 125.361V127.53C193.467 127.895 193.171 128.191 192.806 128.191Z" fill="#AAC6EF"/>
<path d="M164.302 245.513H149.097C148.201 245.513 147.475 244.787 147.475 243.89V200.484C147.475 199.588 148.201 198.861 149.097 198.861H164.302C165.198 198.861 165.925 199.587 165.925 200.484V243.89C165.925 244.787 165.198 245.513 164.302 245.513Z" fill="#F5F7FF"/>
<path d="M187.629 245.513H172.424C171.528 245.513 170.801 244.787 170.801 243.89V200.484C170.801 199.588 171.527 198.861 172.424 198.861H187.629C188.525 198.861 189.251 199.587 189.251 200.484V243.89C189.251 244.787 188.525 245.513 187.629 245.513Z" fill="#F5F7FF"/>
<path d="M210.956 245.513H195.751C194.855 245.513 194.129 244.787 194.129 243.89V200.484C194.129 199.588 194.855 198.861 195.751 198.861H210.956C211.852 198.861 212.579 199.587 212.579 200.484V243.89C212.578 244.787 211.852 245.513 210.956 245.513Z" fill="#F5F7FF"/>
<path d="M187.629 289.791H172.424C171.528 289.791 170.801 289.065 170.801 288.169V252.407C170.801 251.511 171.527 250.784 172.424 250.784H187.629C188.525 250.784 189.251 251.511 189.251 252.407V288.169C189.251 289.065 188.525 289.791 187.629 289.791Z" fill="#F5F7FF"/>
<path d="M210.956 289.791H195.751C194.855 289.791 194.129 289.065 194.129 288.169V252.407C194.129 251.511 194.855 250.784 195.751 250.784H210.956C211.852 250.784 212.579 251.511 212.579 252.407V288.169C212.578 289.065 211.852 289.791 210.956 289.791Z" fill="#F5F7FF"/>
<path d="M183.038 313.656C187.015 311.994 188.891 307.422 187.229 303.445C185.566 299.469 180.995 297.593 177.018 299.255C173.041 300.918 171.165 305.489 172.828 309.466C174.49 313.443 179.062 315.319 183.038 313.656Z" fill="#E1ECFD"/>
<path d="M178.71 312.889C183.021 312.889 186.515 309.394 186.515 305.084C186.515 300.774 183.021 297.28 178.71 297.28C174.4 297.28 170.906 300.774 170.906 305.084C170.906 309.394 174.4 312.889 178.71 312.889Z" fill="#F5F7FF"/>
<path d="M240.606 204.146C236.932 206.087 226.207 267.861 224.227 277.581C222.247 287.3 211.448 342.376 211.448 342.376L226.027 343.456C226.027 343.456 242.406 295.759 246.185 288.2C249.965 280.641 269.073 224.256 267.169 211.411C267.169 211.411 250.145 199.106 240.606 204.146Z" fill="#262673"/>
<path d="M250.929 207.985C250.929 207.985 251.274 274.374 254.041 283.657C256.809 292.939 263.38 344.838 263.38 344.838H278.887L283.416 204.315C283.416 204.315 252.509 197.482 250.929 207.985Z" fill="#2D2D85"/>
<path d="M263.417 157.96C264.526 155.943 263.861 153.394 261.921 152.156C259.571 150.657 255.881 149.508 250.971 151.632C244.236 154.545 232.274 164.428 232.274 164.428C232.274 164.428 218.923 173.814 221.72 176.659C223.568 178.538 225.039 180.719 227.649 180.348C235.845 179.188 253.504 175.989 263.417 157.96Z" fill="#4B4FD9"/>
<path d="M254.017 150.664C254.017 150.664 241.968 158.634 240.115 165.74C238.261 172.845 237.75 204.202 237.75 204.202C237.75 204.202 263.289 221.053 284.789 203.229C284.789 203.229 284.495 205.244 284.186 200.919C283.911 197.057 282.403 174.474 282.084 169.683C282.042 169.06 281.872 168.471 281.573 167.922C279.462 164.04 269.978 148.555 254.017 150.664Z" fill="#4B4FD9"/>
<path d="M240.182 176.401C240.189 176.298 240.194 176.206 240.198 176.114L240.884 163.727C239.138 166.434 238.976 174.378 238.908 175.443C238.509 180.768 238.234 187.14 238.052 192.534C238.054 192.518 239.917 180.412 240.181 176.421L240.181 176.422L240.182 176.401Z" fill="#383BA4"/>
<path d="M283.883 196.489L251.557 183.401C251.557 183.401 260.679 197.487 270.129 200.816C276.43 203.037 281.637 203.235 284.416 203.123C284.343 202.706 284.266 202.019 284.188 200.919C284.13 200.128 284.022 198.54 283.883 196.489Z" fill="#383BA4"/>
<path d="M265.196 168.731C265.196 168.731 268.147 182.008 272.017 186.417L253.972 179.954L280.296 194.337L265.196 168.731Z" fill="#383BA4"/>
<path d="M261.281 150.911C259.911 150.63 258.479 150.47 256.981 150.469C255.075 153.393 252.423 158.092 254.463 158.904C257.46 160.099 262.204 155.729 262.684 154.47C263.045 153.523 261.881 151.739 261.281 150.911Z" fill="#383BA4"/>
<path d="M251.016 138.93C251.016 138.93 251.384 141.232 251.016 142.06C250.648 142.889 251.325 147.62 252.195 148.538C252.639 149.008 254.632 148.879 256.38 147.038C258.129 145.197 258.012 141.324 258.012 141.324C258.012 141.324 258.38 137.181 251.016 138.93Z" fill="#D17975"/>
<path d="M251.557 153.702C251.615 151.48 253.311 139.613 253.311 139.613C253.311 139.613 255.875 140.649 257.448 141.974C257.498 141.62 257.635 141.163 257.917 140.556C257.917 140.556 258.572 139.379 259.157 139.613C259.742 139.848 260.326 140.783 259.157 141.835L258.426 143.077C258.529 143.262 258.6 143.448 258.631 143.634C258.631 143.634 260.15 153.176 260.618 154.053C260.618 154.053 256.727 159.314 254.464 158.905C252.2 158.495 251.498 155.923 251.557 153.702Z" fill="#D17975"/>
<path d="M251.697 151.99C251.794 151.055 251.935 149.877 252.093 148.623C252.156 148.568 252.194 148.537 252.194 148.537C252.194 148.537 254.725 150.34 256.38 147.037C256.38 147.037 254.945 152.374 251.697 151.99Z" fill="#AB6360"/>
<path d="M273.157 157.263C271.31 155.891 268.694 156.202 267.204 157.956C265.399 160.08 263.758 163.579 265.194 168.732C267.164 175.801 275.326 188.997 275.326 188.997L253.97 179.956L251.553 183.402C251.553 183.402 268.393 204.154 286.006 201.117C288.605 200.669 290.48 198.382 290.469 195.746C290.434 187.468 289.669 169.538 273.157 157.263Z" fill="#4B4FD9"/>
<path d="M215.812 342.726C215.812 342.726 207.211 349.476 204.184 349.996C203.657 350.086 203.208 350.597 203.17 351.244C203.132 351.886 203.431 352.611 204.782 352.941C206.771 353.429 215.617 352.585 220.145 352.107C221.687 351.944 222.861 350.671 222.899 349.12C222.92 348.286 222.944 347.327 222.97 346.35C223.007 344.988 222.513 343.205 222.513 343.205L215.812 342.726Z" fill="#422E2D"/>
<path d="M274.491 344.839C274.491 344.839 281.789 353.197 284.639 354.137C285.136 354.301 285.497 354.87 285.443 355.516C285.389 356.157 284.998 356.832 283.647 356.97C281.664 357.172 273.284 355.106 268.969 353.993C267.48 353.608 266.512 352.194 266.692 350.667C266.79 349.831 266.902 348.869 267.016 347.888C267.172 346.534 267.899 344.838 267.899 344.838L274.491 344.839Z" fill="#422E2D"/>
<path d="M251.171 140.49C252.057 138.499 255.921 139.842 256.061 139.917C256.423 140.112 256.662 140.515 256.658 140.925C256.655 141.173 256.573 141.413 256.553 141.66C256.524 142.042 256.656 142.435 256.912 142.721C256.888 142.273 257.74 140.543 258.269 141.973C258.409 142.353 258.036 142.751 257.996 143.154C257.924 143.884 258.314 144.576 258.751 145.166C259.232 144.717 259.419 144.031 259.462 143.374C259.544 142.123 259.968 142.99 260.128 141.746C260.334 140.14 260.474 137.471 258.015 136.286C248.761 131.822 251.171 140.49 251.171 140.49Z" fill="#422E2D"/>
<path d="M257.889 292.1C257.289 289.34 256.809 277.701 255.609 272.061C255.201 270.141 254.601 268.44 253.988 267.019L253.988 267.018C253.986 267.012 253.983 267.007 253.98 267C253.849 266.696 253.718 266.411 253.587 266.134C253.567 266.092 253.547 266.046 253.527 266.005C253.4 265.74 253.277 265.495 253.154 265.257C253.13 265.21 253.105 265.16 253.08 265.113C252.966 264.896 252.858 264.696 252.751 264.504C252.717 264.444 252.685 264.384 252.652 264.327C252.559 264.162 252.472 264.013 252.387 263.87C252.342 263.794 252.3 263.724 252.258 263.655C252.227 263.605 252.191 263.541 252.162 263.495V263.5C251.799 262.915 251.557 262.582 251.557 262.582L243.677 294.166H243.677C244.739 291.452 245.612 289.354 246.189 288.2C247.302 285.975 249.744 279.512 252.586 271.182C252.975 277.126 253.453 281.684 254.041 283.657C255.024 286.953 256.486 295.63 257.964 305.443L257.965 305.444C257.966 305.444 258.489 294.86 257.889 292.1Z" fill="#422E2D"/>
<path d="M249.994 175.641C249.994 175.641 246.958 177.801 247.606 180.14C248.254 182.48 251.554 183.4 251.554 183.4L253.971 179.954C253.971 179.954 251.854 175.461 249.994 175.641Z" fill="#D17975"/>
<path d="M229.875 166.213C216.599 168.302 206.596 161.297 206.596 161.297L204.648 164.884C204.648 164.884 213.733 178.668 226.984 180.383L229.875 166.213Z" fill="#4B4FD9"/>
<path d="M227.649 180.349C230.59 179.932 234.76 179.239 239.344 177.705L239.469 176.949L238.909 175.444C236.305 177.674 227.683 180.183 227.046 180.366C227.244 180.367 227.437 180.379 227.649 180.349Z" fill="#383BA4"/>
<path d="M206.607 161.288C206.607 161.288 199.191 155.774 198.941 155.917C197.4 156.801 202.351 160.911 202.699 161.619C203.047 162.327 201.814 162.212 201.231 162.673C200.648 163.135 202.687 164.512 204.291 164.881C205.853 165.24 206.607 161.288 206.607 161.288Z" fill="#D17975"/>
<path d="M111.369 169.136H85.6863V137.317H86.4952V168.327H111.369V169.136Z" fill="#4B4FD9"/>
<path d="M86.088 137.722C78.9655 137.722 73.1711 131.927 73.1711 124.804C73.1711 117.682 78.9655 111.886 86.088 111.886C93.2105 111.886 99.0056 117.681 99.0056 124.804C99.0062 131.927 93.2111 137.722 86.088 137.722ZM86.088 112.695C79.4117 112.695 73.98 118.127 73.98 124.804C73.98 131.481 79.4117 136.912 86.088 136.912C92.765 136.912 98.1966 131.481 98.1966 124.804C98.1972 118.127 92.765 112.695 86.088 112.695Z" fill="#4B4FD9"/>
<path d="M136.475 359.667C168.316 359.667 194.129 355.805 194.129 351.041C194.129 346.277 168.316 342.415 136.475 342.415C104.633 342.415 78.8208 346.277 78.8208 351.041C78.8208 355.805 104.633 359.667 136.475 359.667Z" fill="#DAEFD9"/>
<path d="M299.536 258.802C292.413 258.802 286.62 253.007 286.62 245.884C286.62 238.762 292.413 232.966 299.536 232.966C306.658 232.966 312.454 238.761 312.454 245.884C312.453 253.007 306.658 258.802 299.536 258.802ZM299.536 233.776C292.86 233.776 287.428 239.208 287.428 245.885C287.428 252.562 292.86 257.993 299.536 257.993C306.213 257.993 311.644 252.562 311.644 245.885C311.644 239.208 306.213 233.776 299.536 233.776Z" fill="#4B4FD9"/>
<path d="M287.022 246.289H191.485V186.764H192.294V245.48H287.022V246.289Z" fill="#4B4FD9"/>
<path d="M176.517 342.87C176.517 342.87 185.908 349.953 189.112 350.259C189.669 350.312 190.178 350.811 190.269 351.484C190.359 352.152 190.102 352.932 188.716 353.384C186.564 354.085 176.312 353.835 171.851 353.688C170.66 353.649 169.683 352.742 169.566 351.556C169.465 350.538 169.335 349.245 169.2 347.919C169.056 346.498 168.885 343.468 168.885 343.468L176.517 342.87Z" fill="#422E2D"/>
<path d="M118.422 342.415C118.422 342.415 127.814 349.497 131.018 349.803C131.575 349.856 132.084 350.356 132.175 351.028C132.264 351.696 132.008 352.476 130.622 352.928C128.469 353.63 118.218 353.379 113.757 353.233C112.566 353.193 111.589 352.286 111.472 351.101C111.37 350.083 111.241 348.79 111.106 347.463C110.962 346.043 110.791 342.414 110.791 342.414H118.422V342.415Z" fill="#422E2D"/>
<path d="M71.5061 281.553L95.249 305.075L109.656 342.415H121.609L116.49 283.622L98.5296 279.674L71.5061 281.553Z" fill="#6F1B73"/>
<path d="M147.327 278.381C136.971 270.488 125.892 262.507 114.388 254.915L99.207 277.974L103.243 287.551L130.77 300.82C132.595 301.699 134.221 302.94 135.552 304.466L165.4 343.456H180.025L153.178 285.684C151.844 282.813 149.845 280.301 147.327 278.381Z" fill="#6F1B73"/>
<path d="M97.5539 203.578C94.6508 203.869 90.1409 203.776 86.0888 205.753C84.6308 206.464 78.3081 245.334 75.4908 255.565C73.9636 261.11 73.9636 261.826 76.9114 263.523C80.2765 265.46 77.9839 267.625 102.001 266.044C102.001 266.044 124.471 266.751 123.923 258.693C120.78 212.474 111.786 204.567 111.786 204.567C111.786 204.567 104.472 202.886 97.5539 203.578Z" fill="#72BFA4"/>
<path d="M130.557 208.916C130.557 208.916 133.634 203.126 135.246 204.416C136.857 205.705 138.859 207.256 138.059 208.77C137.258 210.284 133.116 212.068 133.116 212.068C133.116 212.068 130.786 210.491 130.557 208.916Z" fill="#F0C6B2"/>
<path d="M121.611 213.456L130.559 208.915L133.129 212.078C133.129 212.078 127.972 225.915 116.417 230.264L121.611 213.456Z" fill="#6BB39A"/>
<path d="M159.554 204.827C159.554 204.827 159.077 198.185 161.135 198.343C163.193 198.501 165.72 198.656 165.912 200.358C166.103 202.06 163.683 205.867 163.683 205.867C163.683 205.867 160.629 206.001 159.554 204.827Z" fill="#F0C6B2"/>
<path d="M112.168 205.027C112.168 205.027 136.886 228.052 142.478 227.957C146.379 227.892 157.752 211.431 159.556 204.827L163.767 205.752C163.767 205.752 164.17 233.426 142.478 245.089C142.478 245.089 133.517 249.833 119.285 236.128C119.285 236.128 107.077 200.853 112.168 205.027Z" fill="#72BFA4"/>
<path d="M86.091 205.753C86.091 205.753 73.8353 216.76 73.9671 221.766C74.0988 226.773 79.3503 237.32 79.3503 237.32L86.091 205.753Z" fill="#6BB39A"/>
<path d="M119.284 236.129C119.284 236.129 123.909 257.149 123.184 259.916C122.556 262.317 120.451 263.392 119.903 263.636C122.396 262.545 124.078 260.969 123.923 258.694C123.384 250.775 122.672 244.006 121.864 238.184L119.284 236.129Z" fill="#422E2D"/>
<path d="M102.42 204.908C102.567 202.875 102.09 191.892 102.09 191.892C102.09 191.892 99.6566 192.606 98.1012 193.673C98.0877 193.346 98.0031 192.916 97.8015 192.337C97.8015 192.337 97.3094 191.204 96.7548 191.365C96.2001 191.525 95.5824 192.326 96.5544 193.392L97.109 194.591C96.9981 194.751 96.9166 194.914 96.8724 195.081C96.8724 195.081 94.4223 201.596 93.9161 202.354L102.42 204.908Z" fill="#F0C6B2"/>
<path d="M102.43 202.147C102.425 201.284 102.409 201.003 102.377 199.844C102.377 199.844 99.723 199.414 98.5298 197.022C98.5298 197.022 99.4307 202.204 102.43 202.147Z" fill="#DCAC9B"/>
<path d="M103.145 190.713C103.145 190.713 103.132 192.85 103.581 193.55C104.03 194.249 104.075 198.632 103.415 199.585C103.078 200.073 101.254 200.234 99.4122 198.81C97.5706 197.385 97.1373 193.857 97.1373 193.857C97.1373 193.857 96.2266 190.154 103.145 190.713Z" fill="#F0C6B2"/>
<path d="M99.9465 195.388C99.8239 195.716 99.6762 196.04 99.6376 196.388C99.5371 197.305 100.196 198.104 100.698 198.878C102.106 201.051 103.533 203.73 103.513 206.319C103.5 208.076 103.332 209.852 102.753 211.511C102.173 213.17 99.4727 217.514 93.886 217.006C88.3778 216.506 88.0094 210.882 88.0683 209.696C88.2791 205.456 90.2641 204.748 90.0784 204.404C86.0882 197.022 88.6339 189.319 95.7895 187.101C96.9251 186.749 103.106 185.787 103.501 190.21C103.71 192.549 101.203 190.013 101.203 193.274C101.203 196.61 100.252 194.572 99.9465 195.388Z" fill="#422E2D"/>
<path d="M152.217 218.259C148.546 223.463 144.504 227.924 142.478 227.959C142.478 227.959 144.79 228.617 146.107 228.552C147.425 228.486 152.222 218.256 152.222 218.256L152.217 218.259Z" fill="#DE5E95"/>
<path d="M116.417 288.964L137.349 353.088L125.883 288.964H116.417Z" fill="#E1ECFD"/>
<path d="M87.9221 227.72C90.1694 228.707 92.1544 230.201 94.0291 231.785C96.9738 234.272 99.7335 237.05 101.704 240.363C105.21 246.258 106.26 253.836 111.517 258.241C116.981 262.819 126.785 261.852 130.275 268.068C136.792 279.673 133.129 288.735 122.949 288.735C108.678 288.735 94.3846 290.261 80.1782 288.905C77.3487 288.634 74.4481 288.256 71.9544 286.892C69.8315 285.731 68.1364 283.924 66.6349 282.027C56.7834 269.582 55.8893 232.23 70.6913 227.975C76.2774 226.37 82.4102 225.3 87.9221 227.72Z" fill="white"/>
<path d="M93.3262 290.073C88.9186 290.073 84.5 289.929 80.12 289.51C77.2709 289.238 74.271 288.853 71.6627 287.426C69.2757 286.121 67.4678 284.058 66.1594 282.405C59.1196 273.512 56.5561 252.359 60.884 238.879C62.8996 232.598 66.2335 228.627 70.5241 227.394C75.6315 225.924 82.2545 224.57 88.1667 227.165C90.6101 228.237 92.6993 229.868 94.422 231.322C98.0016 234.346 100.481 237.119 102.227 240.054C103.526 242.238 104.498 244.661 105.44 247.003C107.105 251.154 108.679 255.071 111.908 257.778C114.161 259.667 117.282 260.601 120.301 261.503C124.428 262.739 128.695 264.016 130.806 267.773C134.448 274.258 135.147 280.356 132.721 284.499C130.892 287.622 127.423 289.343 122.95 289.343C118.018 289.343 112.997 289.529 108.141 289.708C103.265 289.89 98.3025 290.073 93.3262 290.073ZM80.6838 226.916C77.2139 226.916 73.7826 227.72 70.8587 228.56C65.9522 229.971 63.3544 235.152 62.0386 239.25C57.8124 252.413 60.2773 273.021 67.1099 281.653C68.3472 283.215 70.0485 285.162 72.2443 286.361C74.651 287.679 77.5111 288.043 80.2346 288.303C89.4806 289.185 98.9429 288.834 108.093 288.496C112.961 288.316 117.993 288.13 122.948 288.13C126.972 288.13 130.069 286.622 131.672 283.886C133.873 280.123 133.172 274.467 129.746 268.367C127.876 265.039 124.027 263.887 119.953 262.667C116.816 261.728 113.573 260.758 111.128 258.708C107.666 255.806 105.961 251.562 104.312 247.456C103.389 245.156 102.434 242.778 101.183 240.675C99.5086 237.862 97.1111 235.184 93.6375 232.25C91.9822 230.852 89.9801 229.287 87.6782 228.277C85.4279 227.289 83.0476 226.916 80.6838 226.916Z" fill="#E1ECFD"/>
<path d="M99.7747 289.792L98.1832 355.82L109.659 289.468L99.7747 289.792Z" fill="#E1ECFD"/>
<path d="M71.9535 286.894L59.3791 353.088L81.683 289.038C81.683 289.038 73.8453 288.179 71.9535 286.894Z" fill="#E1ECFD"/>
<path d="M136.902 212.936L131.099 214.849C130.998 214.882 130.89 214.828 130.857 214.727L126.971 202.935C126.937 202.834 126.992 202.726 127.093 202.693L132.896 200.781C132.996 200.748 133.104 200.802 133.137 200.903L137.024 212.695C137.057 212.796 137.002 212.903 136.902 212.936Z" fill="#4B4FD9"/>
<path d="M135.288 210.732L131.093 212.115C130.883 212.184 130.656 212.069 130.587 211.859L127.821 203.469C127.752 203.259 127.867 203.032 128.077 202.963L132.271 201.581C132.481 201.511 132.708 201.625 132.778 201.836L135.543 210.225C135.612 210.436 135.498 210.663 135.288 210.732Z" fill="#6C6FDA"/>
<path d="M134.398 204.508C134.398 204.508 133.177 207.548 133.721 207.992C134.264 208.437 135.574 207.202 135.574 207.202L134.398 204.508Z" fill="#F0C6B2"/>
<path d="M79.7229 276.665C81.2536 269.925 77.0312 263.221 70.2918 261.69C63.5524 260.16 56.8481 264.382 55.3174 271.121C53.7866 277.861 58.0091 284.565 64.7485 286.096C71.4879 287.627 78.1922 283.404 79.7229 276.665Z" fill="white" stroke="#D5D7E0" stroke-width="0.75" stroke-miterlimit="10"/>
<path d="M67.5104 286.82C60.3879 286.82 54.5934 281.025 54.5934 273.902C54.5934 266.779 60.3879 260.984 67.5104 260.984C74.6329 260.984 80.4279 266.779 80.4279 273.902C80.4279 281.024 74.6329 286.82 67.5104 286.82ZM67.5104 261.793C60.834 261.793 55.4024 267.225 55.4024 273.902C55.4024 280.579 60.834 286.01 67.5104 286.01C74.1873 286.01 79.619 280.579 79.619 273.902C79.619 267.225 74.1873 261.793 67.5104 261.793Z" fill="#4B4FD9"/>
<path d="M217.668 274.307H78.8206V273.498H216.859V245.885H217.668V274.307Z" fill="#4B4FD9"/>
<path d="M112.929 136.869C117.722 136.869 121.608 132.984 121.608 128.19C121.608 123.397 117.722 119.511 112.929 119.511C108.135 119.511 104.25 123.397 104.25 128.19C104.25 132.984 108.135 136.869 112.929 136.869Z" fill="#E1ECFD"/>
<path d="M247.513 325.697C252.307 325.697 256.192 321.811 256.192 317.018C256.192 312.225 252.307 308.339 247.513 308.339C242.72 308.339 238.834 312.225 238.834 317.018C238.834 321.811 242.72 325.697 247.513 325.697Z" fill="#E1ECFD"/>
<path d="M108.589 141.657C108.589 144.054 106.646 145.996 104.249 145.996C101.852 145.996 99.9096 144.054 99.9096 141.657C99.9096 139.26 101.852 137.317 104.249 137.317C106.646 137.317 108.589 139.261 108.589 141.657Z" fill="#E1ECFD"/>
<path d="M242.088 331.215C242.088 333.612 240.145 335.554 237.748 335.554C235.352 335.554 233.409 333.612 233.409 331.215C233.409 328.818 235.352 326.875 237.748 326.875C240.145 326.875 242.088 328.818 242.088 331.215Z" fill="#E1ECFD"/>
<defs>
<linearGradient id="paint0_linear_41_297" x1="72.5291" y1="70.3338" x2="310.564" y2="39.9869" gradientUnits="userSpaceOnUse">
<stop stop-color="#7464E4"/>
<stop offset="1" stop-color="#1A00D2"/>
</linearGradient>
<linearGradient id="paint1_linear_41_297" x1="124.703" y1="173.141" x2="203.04" y2="166.511" gradientUnits="userSpaceOnUse">
<stop stop-color="#7464E4"/>
<stop offset="1" stop-color="#1A00D2"/>
</linearGradient>
</defs>
</svg>
