<svg width="24" height="24" viewBox="0 0 24 24" fill="none" xmlns="http://www.w3.org/2000/svg">
<path d="M16.2607 4.47525C18.4304 4.47525 20.1947 6.23965 20.1947 8.40925C20.1947 13.0012 14.7432 17.2027 11.835 19.2504C8.92679 17.2027 3.47525 13.0012 3.47525 8.40925C3.47525 6.23965 5.23965 4.47525 7.40925 4.47525C8.04096 4.47667 8.66308 4.62982 9.22326 4.92181C9.78344 5.21379 10.2653 5.63607 10.6282 6.1531L11.835 7.87128L13.0418 6.15408C13.4046 5.63687 13.8864 5.2144 14.4466 4.92224C15.0068 4.63008 15.629 4.47678 16.2607 4.47525ZM16.2607 3C15.392 2.99987 14.5361 3.20937 13.7656 3.61071C12.9951 4.01204 12.3328 4.59337 11.835 5.30532C11.3372 4.59337 10.6749 4.01204 9.90442 3.61071C9.13394 3.20937 8.27799 2.99987 7.40925 3C5.97463 3 4.59876 3.5699 3.58433 4.58433C2.5699 5.59876 2 6.97463 2 8.40925C2 14.0339 8.39275 18.675 11.835 21.0472C15.2773 18.675 21.67 14.0339 21.67 8.40925C21.67 7.6989 21.5301 6.9955 21.2582 6.33922C20.9864 5.68294 20.588 5.08663 20.0857 4.58433C19.5834 4.08204 18.9871 3.68359 18.3308 3.41175C17.6745 3.13991 16.9711 3 16.2607 3Z" fill="#4F4F4F"/>
</svg>
